<?xml version="1.0" standalone="no"?>
<!DOCTYPE svg PUBLIC "-//W3C//DTD SVG 20010904//EN"
 "http://www.w3.org/TR/2001/REC-SVG-20010904/DTD/svg10.dtd">
<svg version="1.0" xmlns="http://www.w3.org/2000/svg"
 width="512.000000pt" height="512.000000pt" viewBox="0 0 512.000000 512.000000"
 preserveAspectRatio="xMidYMid meet">
<metadata>
Created by potrace 1.14, written by Peter Selinger 2001-2017
</metadata>
<g transform="translate(0.000000,512.000000) scale(0.100000,-0.100000)"
fill="#000000" stroke="none">
<path d="M2350 4733 c-523 -53 -1002 -286 -1365 -664 -164 -170 -279 -335
-385 -551 -150 -307 -220 -612 -220 -961 1 -461 140 -872 428 -1261 94 -126
317 -350 442 -444 299 -222 638 -374 976 -437 139 -26 324 -44 324 -32 0 4
-84 175 -187 381 l-186 373 -71 23 c-443 142 -789 472 -960 917 -114 297 -121
698 -16 998 201 575 708 972 1308 1024 221 20 487 -21 690 -105 466 -193 806
-601 908 -1091 34 -164 39 -409 10 -568 -78 -434 -343 -813 -727 -1040 -81
-48 -176 -89 -334 -146 -39 -15 -41 -17 -227 -384 -103 -204 -188 -374 -188
-379 0 -8 152 -2 235 10 296 42 666 186 930 361 733 485 1108 1292 986 2118
-73 493 -289 910 -652 1260 -346 335 -785 539 -1274 595 -84 9 -365 11 -445 3z"/>
<path d="M1821 2994 c-311 -83 -425 -449 -210 -678 99 -107 242 -155 399 -135
60 7 190 52 190 66 0 3 -80 165 -84 170 -1 2 -28 -6 -59 -17 -197 -69 -365 56
-325 243 12 57 54 109 110 138 54 28 161 28 223 0 l45 -20 45 90 46 90 -54 24
c-99 46 -223 57 -326 29z"/>
<path d="M2320 2595 l0 -405 100 0 100 0 0 405 0 405 -100 0 -100 0 0 -405z"/>
<path d="M2660 2595 l0 -405 100 0 100 0 1 273 1 272 17 -75 c9 -41 42 -148
71 -237 l55 -163 101 0 102 0 61 183 c33 100 65 208 71 240 6 31 12 57 13 57
1 0 0 -124 -1 -275 l-4 -275 106 0 106 0 -2 403 -3 402 -145 0 -145 0 -62
-215 c-34 -118 -70 -246 -80 -285 -9 -38 -19 -61 -21 -50 -3 18 -99 365 -138
503 l-15 52 -145 0 -144 0 0 -405z"/>
</g>
</svg>
